#N canvas 827 239 734 565 12;
#X obj 25 543 hv.reverb~;
#X floatatom 194 275 5 0 0 0 - - - 0;
#X msg 194 303 feedback \$1;
#X floatatom 324 416 5 0 0 1 dB - - 0;
#X msg 324 450 dry-gain \$1;
#X floatatom 412 416 5 0 0 1 dB - - 0;
#X msg 412 450 wet-gain \$1;
#X floatatom 489 275 10 0 0 1 Hz - - 0;
#X floatatom 578 275 10 0 0 1 Hz - - 0;
#X msg 489 303 lowcut \$1;
#X msg 578 303 highcut \$1;
#X obj 198 129 vsl 15 128 0 100 0 0 empty empty empty 0 -9 0 10 #fcfcfc #000000 #000000 0 1;
#X obj 493 132 vsl 15 128 0 25000 0 0 empty empty empty 0 -9 0 10 #fcfcfc #000000 #000000 0 1;
#X obj 582 132 vsl 15 128 0 25000 0 0 empty empty empty 0 -9 0 10 #fcfcfc #000000 #000000 0 1;
#X floatatom 698 275 10 0 0 1 Hz - - 0;
#X obj 702 129 vsl 15 128 0 25000 0 0 empty empty empty 0 -9 0 10 #fcfcfc #000000 #000000 0 1;
#X floatatom 857 275 5 0 0 0 - - - 0;
#X obj 861 129 vsl 15 128 0 100 0 0 empty empty empty 0 -9 0 10 #fcfcfc #000000 #000000 0 1;
#X msg 857 303 damp \$1;
#X msg 698 303 crossfreq \$1;
#X msg 234 70 90;
#X msg 651 76 3000;
#X msg 826 76 60;
#X msg 490 76 5;
#X msg 578 76 24000;
#X floatatom 1048 275 5 0 0 0 - - - 0;
#X obj 1052 129 vsl 15 128 0 2800 0 0 empty empty empty 0 -9 0 10 #fcfcfc #000000 #000000 0 1;
#X msg 1012 76 0;
#X msg 1049 303 predelay_ms \$1;
#X obj 665 -165 loadbang;
#X obj 35 594 dac~;
#X obj 25 5 adc~;
#X obj 373 132 vsl 15 128 0 1 0 0 empty empty empty 0 -9 0 10 #fcfcfc #000000 #000000 0 1;
#X floatatom 396 343 5 0 0 0 - - - 0;
#X floatatom 320 343 5 0 0 0 - - - 0;
#X text 336 136 Mix;
#X text 396 136 Wet;
#X text 400 244 Dry;
#X obj 396 315 * -1;
#X msg 396 72 50;
#X obj 396 285 - 1;
#X obj 320 375 rmstodb;
#X obj 396 375 rmstodb;
#X obj 336 5 r Knob2 @hv_param;
#X obj 702 5 r Button1 @hv_param;
#X obj 871 5 r Encoder @hv_param;
#X obj 181 3 r Knob1 @hv_param;
#X text 186 -95 In the e-reverb help (rjlib) lowcut and hightcut are not exposed, f 30;
#X obj 671 -1 bng 25 250 50 0 empty empty empty 17 7 0 10 #e4e4e4 #4d4d4d #373737;
#X obj 181 70 * 100;
#X obj 336 72 * 100;
#N canvas 733 172 450 300 crossover 0;
#X obj 270 135 + 1;
#X floatatom 270 174 5 0 0 0 - - - 12;
#X msg 270 102 1;
#X floatatom 270 254 5 0 0 0 - - - 12;
#X obj 268 59 t b b;
#X text 27 341 Values we cycle through;
#X obj 219 480 s led1_green @hv_param;
#X obj 393 480 s led1_blue @hv_param;
#X obj 44 480 s led1_red @hv_param;
#X obj 270 291 select 0 1 2;
#X obj 270 210 % 3;
#X msg 219 342 3000;
#X msg 287 342 10000;
#X msg 349 342 18000;
#X msg 46 406 1;
#X msg 104 409 0;
#X msg 158 409 0;
#X msg 279 409 1;
#X msg 243 409 0;
#X msg 326 409 0;
#X msg 506 412 1;
#X msg 416 412 0;
#X msg 456 412 0;
#X obj 268 20 inlet;
#X obj 219 531 outlet;
#X obj 287 531 outlet;
#X obj 349 531 outlet;
#X obj 457 184 delay 800;
#X msg 513 277 0;
#X text 55 19 Cycle through a series of values on button press, f 22;
#X connect 0 0 1 0 32.................J.........fB.........LA....;
#X connect 1 0 10 0 32.................I.........PB.........HA....;
#X connect 2 0 0 0 32.................I....H....PB....B....HA....;
#X connect 3 0 9 0;
#X connect 4 0 2 0;
#X connect 4 1 27 0;
#X connect 9 0 11 0;
#X connect 9 1 12 0;
#X connect 9 2 13 0;
#X connect 10 0 3 0;
#X connect 10 0 0 1 48.................E....LC...PA....y....z4++++B....c9+++u....fn++++;
#X connect 11 0 14 0;
#X connect 11 0 15 0;
#X connect 11 0 16 0;
#X connect 11 0 24 0;
#X connect 12 0 18 0;
#X connect 12 0 17 0;
#X connect 12 0 19 0;
#X connect 12 0 25 0;
#X connect 13 0 21 0;
#X connect 13 0 22 0;
#X connect 13 0 20 0;
#X connect 13 0 26 0;
#X connect 14 0 8 0;
#X connect 15 0 6 0;
#X connect 16 0 7 0;
#X connect 17 0 6 0;
#X connect 18 0 8 0;
#X connect 19 0 7 0;
#X connect 20 0 7 0;
#X connect 21 0 8 0;
#X connect 22 0 6 0;
#X connect 23 0 4 0;
#X connect 27 0 28 0;
#X connect 28 0 8 0;
#X connect 28 0 6 0;
#X connect 28 0 7 0;
#X restore 702 47 pd crossover;
#N canvas 733 172 450 300 predelay 0;
#X obj 284 135 + 1;
#X floatatom 284 174 5 0 0 0 - - - 12;
#X msg 284 102 1;
#X floatatom 284 254 5 0 0 0 - - - 12;
#X obj 282 59 t b b;
#X obj 284 291 select 0 1 2;
#X obj 284 210 % 3;
#X msg 60 404 1;
#X msg 118 407 0;
#X msg 172 407 0;
#X msg 293 407 1;
#X msg 257 407 0;
#X msg 340 407 0;
#X msg 520 410 1;
#X msg 430 410 0;
#X msg 470 410 0;
#X obj 282 24 inlet;
#X obj 222 544 outlet;
#X obj 301 544 outlet;
#X obj 372 544 outlet;
#X obj 58 478 s led2_red @hv_param;
#X obj 233 478 s led2_green @hv_param;
#X obj 407 478 s led2_blue @hv_param;
#X msg 233 340 0;
#X msg 301 340 15;
#X msg 363 340 80;
#X text 41 339 Values to cycle through;
#X obj 485 216 delay 800;
#X msg 541 309 0;
#X text 79 23 Cycle through a series of values on button press, f 22;
#X connect 0 0 1 0 32.................J.........fB.........LA....;
#X connect 1 0 6 0 32.................I.........PB.........HA....;
#X connect 2 0 0 0 32.................I....H....PB....B....HA....;
#X connect 3 0 5 0;
#X connect 4 0 2 0;
#X connect 4 1 27 0;
#X connect 5 0 23 0;
#X connect 5 1 24 0;
#X connect 5 2 25 0;
#X connect 6 0 3 0;
#X connect 6 0 0 1 48.................E....LC...PA....y....z4++++B....c9+++u....fn++++;
#X connect 7 0 20 0;
#X connect 8 0 21 0;
#X connect 9 0 22 0;
#X connect 10 0 21 0;
#X connect 11 0 20 0;
#X connect 12 0 22 0;
#X connect 13 0 22 0;
#X connect 14 0 20 0;
#X connect 15 0 21 0;
#X connect 16 0 4 0;
#X connect 23 0 7 0;
#X connect 23 0 8 0;
#X connect 23 0 9 0;
#X connect 23 0 17 0;
#X connect 24 0 11 0;
#X connect 24 0 10 0;
#X connect 24 0 12 0;
#X connect 24 0 18 0;
#X connect 25 0 14 0;
#X connect 25 0 15 0;
#X connect 25 0 13 0;
#X connect 25 0 19 0;
#X connect 27 0 28 0;
#X connect 28 0 20 0;
#X connect 28 0 21 0;
#X connect 28 0 22 0;
#X restore 1046 47 pd predelay;
#X obj 1046 5 bng 25 250 50 0 empty empty empty 17 7 0 10 #e4e4e4 #4d4d4d #373737;
#X obj 1080 5 r Button2 @hv_param;
#X msg 957 26 1;
#X msg 981 26 -1;
#X msg 816 -80 12;
#N canvas 733 172 450 300 damp 0;
#X obj 200 185 t b f;
#X floatatom 254 185 5 0 0 0 - - - 12;
#X obj 145 63 i;
#X obj 200 105 clip 0 20;
#X obj 200 63 +;
#X obj 200 146 / 20;
#X obj 296 250 s led2_blue @hv_param;
#X obj 234 250 * 100;
#X obj 144 17 inlet;
#X obj 199 17 inlet;
#X obj 234 301 outlet;
#X text 7 104 Increment in steps of 5 from 0 to 100 with each movement of the encoder, f 24;
#X connect 1 0 7 0;
#X connect 1 0 6 0 32.................P....nB....D....p....7B....;
#X connect 2 0 4 1;
#X connect 3 0 2 0;
#X connect 3 0 5 0;
#X connect 4 0 3 0;
#X connect 5 0 1 0;
#X connect 5 0 0 0;
#X connect 7 0 10 0;
#X connect 8 0 2 0;
#X connect 9 0 4 0;
#X restore 857 47 pd damp;
#X text 186 -195 knob 1: room size \; knob 2: dry/ wet mix \; encoder: damp 0dB - 100dB \; button 1: crossover 3kHz \, 10kHz \, 18kHz \; button 2: predelay 0ms \, 15ms \, 80ms, f 43;
#X connect 0 0 30 0;
#X connect 0 1 30 1;
#X connect 1 0 2 0;
#X connect 2 0 0 1 32.................YB...r3+++el....K9+++2M....;
#X connect 3 0 4 0;
#X connect 4 0 0 1 32.................O....jv++++C....I7+++qD....;
#X connect 5 0 6 0;
#X connect 6 0 0 1 32.................V....Dq+++uE....w5+++qD....;
#X connect 7 0 9 0;
#X connect 8 0 10 0;
#X connect 9 0 0 1 48.................vB...Hy+++Or....x7+++CK....Y9+++vB...Pl+++e2....;
#X connect 10 0 0 1 32.................3B...rf+++Ot....K3+++2M....;
#X connect 11 0 1 0;
#X connect 12 0 7 0;
#X connect 13 0 8 0;
#X connect 14 0 19 0;
#X connect 15 0 14 0;
#X connect 16 0 18 0;
#X connect 17 0 16 0;
#X connect 18 0 0 1 48.................FC...Lj+++uw....C4+++aL....87+++FC...PO+++e2....;
#X connect 19 0 0 1 48.................+B...Tj++++u....E4++++K...vj8++++B...LY+++e2....;
#X connect 20 0 11 0;
#X connect 21 0 15 0;
#X connect 22 0 17 0;
#X connect 23 0 12 0;
#X connect 24 0 13 0;
#X connect 25 0 28 0;
#X connect 26 0 25 0;
#X connect 27 0 26 0;
#X connect 28 0 0 1 32.................LC...PC+++Oy....zv+++2M....;
#X connect 29 0 20 0;
#X connect 29 0 39 0;
#X connect 29 0 23 0;
#X connect 29 0 24 0;
#X connect 29 0 21 0;
#X connect 29 0 22 0;
#X connect 29 0 57 0;
#X connect 29 0 27 0;
#X connect 31 0 0 0;
#X connect 32 0 34 0;
#X connect 32 0 40 0;
#X connect 33 0 42 0;
#X connect 34 0 41 0;
#X connect 38 0 33 0;
#X connect 39 0 32 0;
#X connect 40 0 38 0;
#X connect 41 0 5 0;
#X connect 42 0 3 0;
#X connect 43 0 50 0;
#X connect 44 0 51 0;
#X connect 45 0 58 1;
#X connect 46 0 49 0;
#X connect 48 0 51 0;
#X connect 49 0 11 0;
#X connect 50 0 32 0;
#X connect 51 0 15 0;
#X connect 51 1 15 0;
#X connect 51 2 15 0;
#X connect 52 0 26 0;
#X connect 52 1 26 0;
#X connect 52 2 26 0;
#X connect 53 0 52 0;
#X connect 54 0 52 0;
#X connect 55 0 58 1;
#X connect 56 0 58 1;
#X connect 57 0 58 0;
#X connect 58 0 17 0;
